<svg width="32" height="30" viewBox="0 0 32 30" fill="none" xmlns="http://www.w3.org/2000/svg">
<path d="M13 13.5L10 17.25L13 21" fill="#155DFC"/>
<path d="M19 13.5L22 17.25L19 21" fill="#155DFC"/>
<path d="M28 27.75C28.7957 27.75 29.5587 27.4339 30.1213 26.8713C30.6839 26.3087 31 25.5456 31 24.75V9.75C31 8.95435 30.6839 8.19129 30.1213 7.62868C29.5587 7.06607 28.7957 6.75 28 6.75H16.15C15.6483 6.75492 15.1533 6.63392 14.7105 6.39807C14.2676 6.16222 13.8909 5.81906 13.615 5.4L12.4 3.6C12.1268 3.1852 11.755 2.84472 11.3177 2.60909C10.8805 2.37347 10.3917 2.25008 9.895 2.25H4C3.20435 2.25 2.44129 2.56607 1.87868 3.12868C1.31607 3.69129 1 4.45435 1 5.25V24.75C1 25.5456 1.31607 26.3087 1.87868 26.8713C2.44129 27.4339 3.20435 27.75 4 27.75H28Z" fill="#155DFC"/>
<path d="M13 13.5L10 17.25L13 21M19 13.5L22 17.25L19 21M28 27.75C28.7956 27.75 29.5587 27.4339 30.1213 26.8713C30.6839 26.3087 31 25.5456 31 24.75V9.75C31 8.95435 30.6839 8.19129 30.1213 7.62868C29.5587 7.06607 28.7956 6.75 28 6.75H16.15C15.6483 6.75492 15.1533 6.63392 14.7105 6.39807C14.2676 6.16222 13.8909 5.81906 13.615 5.4L12.4 3.6C12.1268 3.1852 11.755 2.84472 11.3177 2.60909C10.8805 2.37347 10.3917 2.25008 9.895 2.25H4C3.20435 2.25 2.44129 2.56607 1.87868 3.12868C1.31607 3.69129 1 4.45435 1 5.25V24.75C1 25.5456 1.31607 26.3087 1.87868 26.8713C2.44129 27.4339 3.20435 27.75 4 27.75H28Z" stroke="white" stroke-width="1.5" stroke-linecap="round" stroke-linejoin="round"/>
</svg>
